<?xml version="1.0" encoding="UTF-8"?>

<svg xmlns="http://www.w3.org/2000/svg" xmlns:xlink="http://www.w3.org/1999/xlink" width="75px" height="75px" viewBox="0 0 75 75" version="1.1">

<g id="surface1">

<path style=" stroke:none;fill-rule:nonzero;fill:rgb(0%,0%,0%);fill-opacity:1;" d="M 37.472656 5.589844 C 19.359375 5.582031 4.6875 20.246094 4.6875 38.34375 C 4.6875 52.652344 13.863281 64.820312 26.644531 69.285156 C 28.363281 69.722656 28.101562 68.496094 28.101562 67.660156 L 28.101562 61.988281 C 18.164062 63.148438 17.761719 56.574219 17.09375 55.472656 C 15.746094 53.175781 12.5625 52.589844 13.511719 51.488281 C 15.777344 50.324219 18.082031 51.78125 20.757812 55.730469 C 22.691406 58.59375 26.460938 58.109375 28.375 57.632812 C 28.792969 55.914062 29.683594 54.375 30.914062 53.179688 C 20.621094 51.332031 16.324219 45.050781 16.324219 37.582031 C 16.324219 33.957031 17.519531 30.621094 19.863281 27.933594 C 18.371094 23.503906 20 19.710938 20.222656 19.144531 C 24.476562 18.765625 28.902344 22.191406 29.246094 22.464844 C 31.660156 21.8125 34.425781 21.46875 37.515625 21.46875 C 40.621094 21.46875 43.386719 21.824219 45.824219 22.484375 C 46.65625 21.855469 50.757812 18.910156 54.710938 19.269531 C 54.921875 19.832031 56.519531 23.539062 55.113281 27.914062 C 57.488281 30.609375 58.695312 33.96875 58.695312 37.601562 C 58.695312 45.089844 54.375 51.378906 44.046875 53.199219 C 45.835938 54.953125 46.839844 57.355469 46.835938 59.859375 L 46.835938 68.101562 C 46.894531 68.761719 46.835938 69.410156 47.933594 69.410156 C 60.910156 65.039062 70.246094 52.785156 70.246094 38.347656 C 70.246094 20.246094 55.570312 5.589844 37.472656 5.589844 Z M 37.472656 5.589844 "/>

</g>

</svg>

